<svg width="22" height="18" viewBox="0 0 22 18" fill="none" xmlns="http://www.w3.org/2000/svg">
<path d="M11.1455 2.59054C12.3328 1.29316 14.0958 0.536825 15.9522 0.536825C16.4647 0.536825 16.9642 0.59551 17.4372 0.712105C19.8104 1.29466 21.3 3.15334 21.3 5.55172C21.3 6.90723 20.6986 8.30683 19.8228 9.63189C18.9446 10.9606 17.7742 12.2388 16.5988 13.357C14.2476 15.5938 11.8494 17.2156 11.6508 17.3491M11.1455 2.59054L11.5113 17.1416M11.1455 2.59054C9.92953 1.2551 8.19858 0.5 6.32936 0.5C5.80154 0.5 5.28771 0.562475 4.80268 0.686171L4.80259 0.686196C2.46384 1.28362 1 3.15351 1 5.55172C1 6.90723 1.60139 8.30683 2.47719 9.63189C3.35539 10.9606 4.52587 12.2388 5.70131 13.357C8.05129 15.5924 10.4483 17.2136 10.6497 17.3485M11.1455 2.59054L10.7892 17.1411M11.6508 17.3491L11.5113 17.1416M11.6508 17.3491C11.6509 17.349 11.6509 17.349 11.6509 17.349L11.5113 17.1416M11.6508 17.3491C11.5036 17.4481 11.3293 17.5 11.1503 17.5C10.9709 17.5 10.7973 17.448 10.6497 17.3485M11.5113 17.1416C11.4065 17.2121 11.2811 17.25 11.1503 17.25C11.0194 17.25 10.8945 17.2121 10.7892 17.1411M10.6497 17.3485C10.6498 17.3486 10.6499 17.3487 10.65 17.3488L10.7892 17.1411M10.6497 17.3485C10.6496 17.3485 10.6495 17.3484 10.6494 17.3483L10.7892 17.1411M7.12378 12.3226L7.12378 12.3226C5.67902 10.9744 4.5831 9.7107 3.84997 8.56418C3.11497 7.41472 2.75694 6.40237 2.75694 5.55172C2.75694 3.92634 3.68236 2.73238 5.25002 2.33137L5.18806 2.08917L5.24982 2.33142C5.59046 2.24459 5.95512 2.20017 6.33425 2.20017C8.01588 2.20017 9.53038 3.05123 10.3898 4.47619C10.5507 4.74397 10.8363 4.89874 11.1541 4.89874L11.1558 4.89873C11.4668 4.89659 11.7596 4.73371 11.9151 4.46364C12.8602 2.82776 14.608 2.23544 15.9402 2.23544C16.3108 2.23544 16.668 2.27741 17.0027 2.35991L17.0028 2.35994C17.8107 2.55869 18.4427 2.95758 18.873 3.4989C19.303 4.03997 19.5425 4.7371 19.5425 5.55172C19.5425 6.40139 19.1853 7.41248 18.4518 8.5605C17.7202 9.7056 16.6266 10.9677 15.1848 12.3143C13.5699 13.8222 11.9512 15.029 11.1498 15.6006C10.3469 15.0271 8.72678 13.8185 7.12378 12.3226Z" fill="#30261D" stroke="#30261D" stroke-width="0.5"/>
</svg>
