<svg width="62" height="40" viewBox="0 0 62 40" fill="none" xmlns="http://www.w3.org/2000/svg">
<path fill-rule="evenodd" clip-rule="evenodd" d="M9.22736 1.10728V0H21.5305V22.1038C21.5305 22.3843 21.528 22.6606 21.523 22.9328C21.9154 22.9377 22.2429 22.9941 22.6012 23.0559C22.7277 23.0777 22.8581 23.1002 22.9964 23.1213C23.7681 23.2286 24.5458 23.2869 25.3248 23.296C25.7228 23.296 26.2359 23.2757 26.8627 23.2289C27.5253 23.1805 28.1849 23.0968 28.8386 22.978C29.5308 22.8558 30.2344 22.6997 30.9492 22.5098C31.6117 22.3397 32.2518 22.0919 32.8562 21.7716C33.3757 21.5011 33.841 21.1374 34.2292 20.6988C34.3896 20.5172 34.5166 20.3114 34.6069 20.091C34.6072 19.6947 34.648 19.2746 34.7295 18.8307C34.6424 18.3474 34.4033 17.8708 34.0121 17.4009C33.4461 16.7337 32.8239 16.1163 32.1524 15.5555C31.4159 14.9317 30.6066 14.2895 29.7244 13.6288C28.862 12.9887 28.0501 12.2833 27.2958 11.5188C26.5772 10.7965 25.9524 9.98649 25.4361 9.10802C24.9374 8.26022 24.6772 7.29329 24.6832 6.30967C24.6824 5.43942 24.8833 4.67478 25.2861 4.01575C25.6949 3.34905 26.2364 2.77346 26.8768 2.32468C27.5679 1.83729 28.3234 1.44828 29.1216 1.1688C29.8974 0.890389 30.6921 0.667952 31.4998 0.503198C31.5305 0.497662 31.5613 0.49151 31.592 0.485358C31.6228 0.479207 31.6535 0.473055 31.6843 0.467519C32.5371 0.302575 33.3984 0.185104 34.2643 0.115649C35.1124 0.0483918 35.8598 0.0147632 36.5065 0.0147632C36.8704 0.0178891 37.2339 0.0404771 37.5954 0.0824305C38.0008 0.125367 38.3999 0.215588 38.7845 0.351254C39.1427 0.471562 39.4691 0.671347 39.7392 0.935653C39.9982 1.1934 40.1255 1.53359 40.1267 1.96051C40.1277 2.38291 40.0359 2.80038 39.8579 3.18344C39.6832 3.5703 39.4321 3.91786 39.1197 4.20521C38.9302 4.39075 38.7243 4.55876 38.5046 4.70718C38.2468 4.88619 37.978 5.05413 37.7005 5.211C37.4278 5.36424 37.1421 5.4931 36.8467 5.59608C36.5998 5.6882 36.3394 5.73891 36.0759 5.74618C35.8464 5.75247 35.6236 5.66804 35.4558 5.51119C35.3975 5.45802 35.3483 5.39568 35.31 5.32664C35.2375 5.19894 35.2012 5.05391 35.2048 4.90711C35.2055 4.75532 35.2415 4.60577 35.31 4.47035C35.3738 4.33607 35.4567 4.21175 35.5561 4.10125C35.7886 3.83489 36.0365 3.57345 36.3054 3.3157C36.5742 3.05795 36.8246 2.80389 37.0602 2.56028C37.2958 2.31668 37.412 2.05893 37.412 1.79011C37.4165 1.71144 37.4002 1.63297 37.3648 1.56258C37.3294 1.49219 37.2761 1.43234 37.2103 1.38902C37.0683 1.29652 36.909 1.23374 36.7421 1.20448C36.5644 1.17121 36.3849 1.14881 36.2045 1.13742C36.0273 1.12635 35.8821 1.11959 35.7702 1.11959C35.5241 1.11959 35.2781 1.12635 35.032 1.13496C34.8997 1.13989 34.7656 1.14604 34.6334 1.1528C34.2511 1.17687 33.8705 1.22288 33.4935 1.2906C32.8857 1.40207 32.2912 1.57627 31.7194 1.81041C31.0689 2.06894 30.4498 2.40037 29.8739 2.79835C29.3161 3.17971 28.8243 3.64951 28.4178 4.18922C28.0372 4.68274 27.8309 5.28844 27.831 5.91166C27.8305 6.60474 28.0616 7.27444 28.5242 7.92076C29.0311 8.62498 29.6082 9.27588 30.2467 9.86343C30.9381 10.511 31.6917 11.1583 32.5074 11.8055C33.3043 12.4385 34.06 13.1217 34.7699 13.8509C34.9582 14.0459 35.1396 14.2427 35.31 14.4445C35.5508 14.7224 35.7781 15.0115 35.991 15.3108C36.325 14.6624 36.7048 14.0378 37.1278 13.4418C37.8485 12.4093 38.7287 11.498 39.7355 10.7419C39.9127 10.6108 40.0917 10.4897 40.2713 10.3826C41.0858 9.89972 41.9267 9.65366 42.7996 9.65366C43.066 9.65366 43.3354 9.77484 43.5993 10.0172C43.8632 10.2596 43.9967 10.5112 43.9967 10.7782C44.0004 10.8287 43.9926 10.8794 43.9737 10.9264C43.9548 10.9734 43.9254 11.0155 43.8878 11.0494C43.8104 11.1133 43.7257 11.1678 43.6356 11.2119C42.9823 11.5994 42.3602 12.0042 41.7692 12.4262C41.236 12.8087 40.7361 13.2357 40.275 13.7026C40.2067 13.7678 40.1452 13.833 40.0837 13.8989C39.1566 14.8448 38.3968 15.9412 37.8365 17.1413C37.2784 18.3516 36.9939 19.67 37.003 21.0027C37.0078 21.1858 37.0321 21.3679 37.0755 21.5459C37.1241 21.7636 37.2576 21.8731 37.4754 21.8731C37.7399 21.8731 38.0426 21.7058 38.3797 21.381C38.7653 21.0008 39.1173 20.588 39.4316 20.147C39.7187 19.757 40.0004 19.3311 40.2768 18.8693C40.3519 18.743 40.4269 18.6144 40.502 18.4836C40.8538 17.866 41.186 17.2693 41.501 16.688C41.8164 16.1093 42.0878 15.5721 42.3155 15.0763C42.5431 14.5805 42.7184 14.2114 42.8414 13.969C42.9619 13.7036 43.1139 13.4537 43.2942 13.2246C43.4738 12.997 43.7334 12.8808 44.0723 12.8808C44.265 12.8806 44.4559 12.9176 44.6346 12.9897C44.8167 13.0622 44.9065 13.2197 44.9065 13.4621C44.9065 13.7266 44.8179 14.0748 44.6506 14.5116C44.4833 14.9483 44.3498 15.2971 44.2532 15.5635C44.0556 16.2204 43.9181 16.8939 43.8423 17.5757C43.7606 18.2431 43.7185 18.9148 43.7162 19.5872C43.7162 19.7804 43.7211 20.0695 43.7334 20.457C43.7446 20.8515 43.7857 21.2444 43.8564 21.6326C43.9184 21.9983 44.0342 22.3528 44.2003 22.6845C44.3578 22.9878 44.5835 23.1379 44.8714 23.1379C45.3074 23.1371 45.7907 22.9441 46.3214 22.559C46.8766 22.1492 47.3964 21.6934 47.8753 21.1965C48.3769 20.6863 48.8493 20.1483 49.2901 19.5848C49.6671 19.1031 49.9609 18.7045 50.1746 18.386C50.6076 16.2384 51.2929 13.7681 51.5508 13.2886C51.6794 13.0351 51.8513 12.8061 52.0589 12.6119C52.264 12.4311 52.524 12.3407 52.839 12.3407C53.0175 12.3349 53.1953 12.3656 53.3616 12.4308C53.5278 12.4961 53.6791 12.5945 53.806 12.7202C54.0994 12.9915 53.9573 13.6959 53.7906 14.0533C53.0727 15.5856 52.0835 18.6669 51.8578 20.1433C51.5662 22.0503 52.1955 22.3333 52.377 22.3333C52.5123 22.3333 52.6981 22.2613 52.9189 22.0958C54.4006 20.9877 56.5219 17.6745 57.88 15.5533C58.3871 14.7613 58.7877 14.1355 59.009 13.8527C59.05 13.8058 59.0946 13.7516 59.1424 13.6935C59.2789 13.5276 59.4419 13.3296 59.6241 13.176C59.8264 12.9918 60.0888 12.8875 60.3623 12.8826C60.5881 12.8826 60.8778 12.9091 61.0716 13.0887C61.28 13.2949 61.4145 13.5641 61.4542 13.8546C61.5382 14.3633 61.5257 15.2905 61.5186 15.818C61.517 15.9323 61.5158 16.0278 61.5158 16.0962C61.5158 16.4807 61.5102 21.4351 61.4542 23.0278C61.3983 24.6204 61.298 26.2088 61.0605 27.7799C60.8263 29.3353 60.4751 30.8707 60.0098 32.3733C59.5547 33.8453 58.8987 35.2475 58.0604 36.5403C57.7737 36.9896 57.4507 37.4147 57.0946 37.8112C56.7326 38.2192 56.3291 38.5885 55.8908 38.913C55.4623 39.23 54.9961 39.4926 54.503 39.6949C54.0084 39.8988 53.4785 40.0033 52.9435 40.0024C52.4227 40.0008 51.9814 39.8925 51.6197 39.6776C51.2668 39.4711 50.9654 39.1871 50.7382 38.8472C50.5046 38.4907 50.3378 38.0946 50.2461 37.6784C50.1447 37.2392 50.0935 36.7899 50.0935 36.3392C50.0935 35.2089 50.3931 34.0904 50.9923 32.9835C51.6082 31.8511 52.3592 30.7976 53.229 29.8462C54.1193 28.865 55.0827 27.9528 56.111 27.1174C57.0257 26.364 57.982 25.6624 58.9752 25.016C58.9973 24.6998 59.0086 24.3834 59.009 24.0668V23.0825C59.009 22.5027 59.0181 21.7993 59.0278 21.0539C59.0473 19.5628 59.0689 17.9034 59.0238 16.728C58.7525 17.2023 56.2709 21.5262 53.7334 23.2179C52.9374 23.7481 52.1955 23.9253 51.6302 23.9253C51.2459 23.9253 50.9353 23.8406 50.6982 23.6712C50.463 23.5041 50.2712 23.2831 50.139 23.0266C49.9982 22.7509 49.9066 22.4528 49.8684 22.1457C49.829 21.8362 49.8064 21.5249 49.8007 21.2131C49.8 21.19 49.7995 21.1663 49.7993 21.142C49.3228 21.7315 48.8059 22.2872 48.2523 22.8051C47.7044 23.3234 47.0964 23.7743 46.4413 24.148C45.7991 24.5066 45.1667 24.6912 44.5386 24.6912C43.9327 24.6912 43.4504 24.4802 43.0869 24.0557C42.711 23.6086 42.4277 23.0913 42.2533 22.5338C42.0602 21.9352 41.939 21.3156 41.8922 20.6883C41.8455 20.1516 41.8334 19.6125 41.8559 19.0742C41.6136 19.4371 41.306 19.8903 40.9332 20.4337C40.7245 20.7363 40.5038 21.0312 40.2713 21.3183C40.0849 21.5508 39.8881 21.7839 39.6826 22.0091C39.2501 22.4916 38.7701 22.9293 38.2499 23.3157C37.7553 23.6774 37.2656 23.9235 36.7833 23.9235C36.3472 23.9235 35.9861 23.7254 35.6951 23.4609C35.401 23.1887 35.1716 22.8541 35.024 22.4815C35.0115 22.4506 34.9994 22.4196 34.9875 22.3884C34.9694 22.4009 34.9513 22.4132 34.933 22.4256C34.225 22.8901 33.4599 23.2612 32.6569 23.5298C31.8032 23.822 30.9294 24.0518 30.0424 24.2175C29.1894 24.3787 28.3287 24.4961 27.4637 24.5694C26.6369 24.6364 25.9 24.6678 25.2522 24.6678C24.6609 24.6679 24.0701 24.6355 23.4824 24.5706C23.3479 24.5481 23.1416 24.5257 22.8636 24.5036C22.5822 24.4804 22.3024 24.4408 22.0257 24.3848C21.8368 24.3493 21.653 24.2917 21.4781 24.2134C21.2638 28.276 20.3702 31.3115 18.3846 33.3188C16.0691 35.6594 13.328 36.939 8.69956 36.939C5.62438 36.939 3.97822 36.4253 2.35913 35.0603C0.710507 33.6694 0 31.8571 0 29.7256C0 27.3671 1.53974 24.6352 4.61553 24.6352C7.69131 24.6352 9.22921 26.1645 9.22921 28.8798C9.22921 31.1454 8.10286 32.0103 6.48745 32.3081L6.48198 32.3172C6.14522 32.8811 5.95657 33.197 5.95657 33.8847C5.95657 34.3996 6.32443 34.9034 6.83748 35.2608C7.35052 35.6182 8.00258 35.8028 8.83674 35.8028C10.3549 35.8028 11.1897 35.1605 11.728 34.0034C12.3034 32.7667 12.3033 30.295 12.3032 26.4197L12.3032 4.65797C12.3032 1.65354 11.9704 1.10728 9.49557 1.10728H9.22736ZM54.1296 30.796C54.8481 29.9529 55.6295 29.1655 56.4672 28.4406V28.4412C57.303 27.7177 58.0836 27.0622 58.8091 26.4745C58.7262 27.3109 58.6004 28.1425 58.432 28.9659C58.2511 29.8808 58.0309 30.8017 57.7713 31.7286C57.5187 32.6328 57.2131 33.5214 56.8559 34.3897C56.5045 35.237 56.1032 35.9547 55.6521 36.5428C55.4958 36.7462 55.3152 36.9664 55.1101 37.2035C54.9069 37.4405 54.6858 37.6616 54.4488 37.8648C54.2205 38.0622 53.9703 38.2329 53.7033 38.3735C53.4589 38.5044 53.1863 38.5739 52.9091 38.5759C52.638 38.5755 52.4178 38.5021 52.2484 38.3557C52.0763 38.2052 51.9375 38.0204 51.8412 37.8131C51.7367 37.5879 51.6682 37.3478 51.6382 37.1014C51.6063 36.871 51.5893 36.6388 51.5871 36.4062C51.5867 35.4117 51.8297 34.44 52.3161 33.491C52.813 32.5248 53.4217 31.6203 54.1296 30.796Z" fill="#30261D"/>
</svg>
