<svg width="21" height="24" viewBox="0 0 21 24" fill="none" xmlns="http://www.w3.org/2000/svg">
<path d="M7.32329 22H13.6767C13.999 22 14.2603 21.7293 14.2603 21.3953C14.2603 21.0613 13.999 20.7906 13.6767 20.7906H7.32329C7.00101 20.7906 6.73977 21.0613 6.73977 21.3953C6.73977 21.7292 7.00101 22 7.32329 22Z" fill="#30261D"/>
<path d="M10.5 22C10.8223 22 11.0835 21.7293 11.0835 21.3953V16.4413C11.0835 16.1073 10.8223 15.8366 10.5 15.8366C10.1777 15.8366 9.91649 16.1073 9.91649 16.4413V21.3953C9.91649 21.7293 10.1777 22 10.5 22Z" fill="#30261D"/>
<path d="M10.4682 14.2778H10.5318C12.2687 14.2778 13.6767 12.8187 13.6767 11.0188V5.25902C13.6767 3.45912 12.2687 2 10.5318 2H10.4682C8.73135 2 7.3233 3.45912 7.3233 5.25902V11.0188C7.3233 12.8187 8.73135 14.2778 10.4682 14.2778Z" fill="#30261D"/>
<path d="M10.4682 16.6854H10.5318C11.9924 16.6854 13.3656 16.096 14.3984 15.0257C15.4312 13.9554 16 12.5324 16 11.0188C16 10.6849 15.7388 10.4141 15.4165 10.4141C15.0942 10.4141 14.833 10.6849 14.833 11.0188C14.833 12.2094 14.3856 13.3287 13.5732 14.1705C12.7608 15.0124 11.6806 15.4761 10.5318 15.4761H10.4682C9.31936 15.4761 8.23922 15.0124 7.42683 14.1706C6.61445 13.3287 6.16704 12.2094 6.16704 11.0188C6.16704 10.6849 5.90578 10.4142 5.58352 10.4142C5.26124 10.4142 5 10.6849 5 11.0188C5 12.5324 5.5688 13.9554 6.60161 15.0257C7.63443 16.096 9.00762 16.6854 10.4682 16.6854Z" fill="#30261D"/>
</svg>
